<mxfile host="app.diagrams.net" modified="2024-07-12T00:32:28.967Z" agent="Mozilla/5.0 (Windows NT 10.0; Win64; x64) AppleWebKit/537.36 (KHTML, like Gecko) Chrome/126.0.0.0 Safari/537.36" etag="5KN22wfZl_IUis0IA7vT" version="24.6.5" type="device">
  <diagram name="Page-1" id="swZflOWLH3U3_CGdYCAh">
    <mxGraphModel dx="1626" dy="784" grid="1" gridSize="10" guides="1" tooltips="1" connect="1" arrows="1" fold="1" page="1" pageScale="1" pageWidth="850" pageHeight="1100" math="0" shadow="0">
      <root>
        <mxCell id="0" />
        <mxCell id="1" parent="0" />
        <mxCell id="b4nlrsdbVw6bt0wzMMlX-1" value="Actor" style="shape=umlActor;verticalLabelPosition=bottom;verticalAlign=top;html=1;" vertex="1" parent="1">
          <mxGeometry x="310" y="280" width="20" height="50" as="geometry" />
        </mxCell>
        <mxCell id="b4nlrsdbVw6bt0wzMMlX-2" value="" style="endArrow=classic;html=1;rounded=0;" edge="1" parent="1" source="b4nlrsdbVw6bt0wzMMlX-1">
          <mxGeometry width="50" height="50" relative="1" as="geometry">
            <mxPoint x="400" y="430" as="sourcePoint" />
            <mxPoint x="320" y="390" as="targetPoint" />
          </mxGeometry>
        </mxCell>
        <mxCell id="b4nlrsdbVw6bt0wzMMlX-3" value="Update client info" style="ellipse;whiteSpace=wrap;html=1;" vertex="1" parent="1">
          <mxGeometry x="265" y="390" width="110" height="50" as="geometry" />
        </mxCell>
        <mxCell id="b4nlrsdbVw6bt0wzMMlX-4" value="Verify updated info" style="ellipse;whiteSpace=wrap;html=1;" vertex="1" parent="1">
          <mxGeometry x="450" y="550" width="110" height="50" as="geometry" />
        </mxCell>
        <mxCell id="b4nlrsdbVw6bt0wzMMlX-5" value="Edit Client info" style="ellipse;whiteSpace=wrap;html=1;" vertex="1" parent="1">
          <mxGeometry x="450" y="440" width="110" height="50" as="geometry" />
        </mxCell>
        <mxCell id="b4nlrsdbVw6bt0wzMMlX-6" value="Search for client" style="ellipse;whiteSpace=wrap;html=1;" vertex="1" parent="1">
          <mxGeometry x="430" y="340" width="110" height="50" as="geometry" />
        </mxCell>
        <mxCell id="b4nlrsdbVw6bt0wzMMlX-7" value="" style="endArrow=classic;html=1;rounded=0;entryX=0;entryY=0.38;entryDx=0;entryDy=0;entryPerimeter=0;exitX=1;exitY=0.5;exitDx=0;exitDy=0;" edge="1" parent="1" source="b4nlrsdbVw6bt0wzMMlX-3" target="b4nlrsdbVw6bt0wzMMlX-5">
          <mxGeometry width="50" height="50" relative="1" as="geometry">
            <mxPoint x="330" y="340" as="sourcePoint" />
            <mxPoint x="330" y="400" as="targetPoint" />
          </mxGeometry>
        </mxCell>
        <mxCell id="b4nlrsdbVw6bt0wzMMlX-8" value="" style="endArrow=classic;html=1;rounded=0;exitX=0.918;exitY=0.2;exitDx=0;exitDy=0;exitPerimeter=0;" edge="1" parent="1" source="b4nlrsdbVw6bt0wzMMlX-3" target="b4nlrsdbVw6bt0wzMMlX-6">
          <mxGeometry width="50" height="50" relative="1" as="geometry">
            <mxPoint x="340" y="350" as="sourcePoint" />
            <mxPoint x="340" y="410" as="targetPoint" />
          </mxGeometry>
        </mxCell>
        <mxCell id="b4nlrsdbVw6bt0wzMMlX-9" value="Extends" style="endArrow=block;endSize=16;endFill=0;html=1;rounded=0;entryX=0.5;entryY=0;entryDx=0;entryDy=0;exitX=0.5;exitY=1;exitDx=0;exitDy=0;" edge="1" parent="1" source="b4nlrsdbVw6bt0wzMMlX-5" target="b4nlrsdbVw6bt0wzMMlX-4">
          <mxGeometry width="160" relative="1" as="geometry">
            <mxPoint x="340" y="400" as="sourcePoint" />
            <mxPoint x="500" y="400" as="targetPoint" />
          </mxGeometry>
        </mxCell>
      </root>
    </mxGraphModel>
  </diagram>
</mxfile>
